<?xml version="1.0" encoding="UTF-8" standalone="no"?>
<!DOCTYPE svg PUBLIC "-//W3C//DTD SVG 1.1//EN" "http://www.w3.org/Graphics/SVG/1.1/DTD/svg11.dtd">
<svg width="100%" height="100%" viewBox="0 0 4359 2999" version="1.1" xmlns="http://www.w3.org/2000/svg" xmlns:xlink="http://www.w3.org/1999/xlink" xml:space="preserve" xmlns:serif="http://www.serif.com/" style="fill-rule:evenodd;clip-rule:evenodd;stroke-miterlimit:10;">
    <g id="Artboard1" transform="matrix(1.16221,0,0,0.718898,-20.0771,0)">
        <rect x="17.275" y="0" width="3750.38" height="4171.21" style="fill:none;"/>
        <clipPath id="_clip1">
            <rect x="17.275" y="0" width="3750.38" height="4171.21"/>
        </clipPath>
        <g clip-path="url(#_clip1)">
            <g id="Layer-1" serif:id="Layer 1" transform="matrix(3.58514,0,0,5.7959,848.81,-272.489)">
                <g transform="matrix(1.00964,0,0,1.00964,-0.156456,-103.738)">
                    <clipPath id="_clip2">
                        <path d="M4.146,451.545C4.146,699.269 204.967,900.089 452.691,900.089C700.416,900.089 901.236,699.269 901.236,451.545C901.236,203.821 700.416,3 452.691,3C204.967,3 4.146,203.821 4.146,451.545Z" clip-rule="nonzero"/>
                    </clipPath>
                    <g clip-path="url(#_clip2)">
                        <g transform="matrix(0.922067,-0.38703,-0.38703,-0.922067,622.1,725.055)">
                            <path d="M-19.682,-3.963C-44.937,-3.963 -65.408,18.805 -65.408,46.892C-65.408,74.978 -44.937,97.747 -19.682,97.747C5.571,97.748 26.043,74.979 26.043,46.892C26.043,18.805 5.572,-3.963 -19.682,-3.963" style="fill:rgb(28,25,24);fill-rule:nonzero;"/>
                        </g>
                        <g transform="matrix(-0.0544293,0.998518,0.998518,0.0544293,481.656,584.045)">
                            <path d="M50.67,-53.506C74.627,-53.506 94.047,-30.787 94.046,-2.762C94.046,25.263 74.626,47.983 50.67,47.983C26.713,47.983 7.293,25.264 7.294,-2.762C7.293,-30.787 26.713,-53.506 50.67,-53.506" style="fill:rgb(28,25,24);fill-rule:nonzero;"/>
                        </g>
                        <g transform="matrix(1,0,0,1,-19.4214,780.261)">
                            <path d="M0,139.476C100.462,139.476 238.403,-81.298 409.81,-81.298C589.501,-81.353 810.981,220.829 907.299,220.829" style="fill:none;fill-rule:nonzero;stroke:rgb(66,119,188);stroke-width:19.81px;"/>
                        </g>
                        <g transform="matrix(1,0,0,1,26.5548,322.602)">
                            <path d="M0,14.673C79.436,14.673 188.507,171.808 324.04,171.808C466.123,171.848 682.305,-157.175 758.463,-157.175" style="fill:none;fill-rule:nonzero;stroke:rgb(245,127,31);stroke-width:19.81px;"/>
                        </g>
                        <g transform="matrix(0.289291,-0.957241,-0.957241,-0.289291,635.82,469.806)">
                            <path d="M-11.022,-8.183C-17.381,-8.183 -22.537,-3.028 -22.536,3.331C-22.536,9.691 -17.381,14.846 -11.022,14.845C-4.662,14.846 0.493,9.69 0.492,3.331C0.492,-3.028 -4.663,-8.184 -11.022,-8.183" style="fill:rgb(28,25,24);fill-rule:nonzero;"/>
                        </g>
                        <g transform="matrix(0.289298,-0.957239,-0.957239,-0.289298,603.894,538.737)">
                            <path d="M-91.185,-67.7C-134.394,-67.7 -169.42,-25.052 -169.42,27.558C-169.42,80.167 -134.393,122.816 -91.185,122.816C-47.976,122.816 -12.95,80.168 -12.95,27.558C-12.95,-25.052 -47.976,-67.7 -91.185,-67.7" style="fill:rgb(28,25,24);fill-rule:nonzero;"/>
                        </g>
                        <g transform="matrix(0.289298,-0.957239,-0.957239,-0.289298,609.662,480.183)">
                            <path d="M-42.416,-31.492C-66.889,-31.492 -86.727,-11.653 -86.727,12.819C-86.727,37.292 -66.889,57.13 -42.416,57.13C-17.944,57.131 1.895,37.292 1.895,12.819C1.896,-11.653 -17.943,-31.492 -42.416,-31.492" style="fill:rgb(28,25,24);fill-rule:nonzero;"/>
                        </g>
                        <g transform="matrix(-0.109818,0.993952,0.993952,0.109818,523.704,499.986)">
                            <path d="M43.938,-49.059C30.871,-49.059 20.279,-29.268 20.279,-4.854C20.279,19.56 30.871,39.35 43.938,39.35C57.004,39.35 67.596,19.559 67.596,-4.855C67.596,-29.269 57.004,-49.059 43.938,-49.059" style="fill:rgb(28,25,24);fill-rule:nonzero;"/>
                        </g>
                        <g transform="matrix(-0.780525,0.625124,0.625124,0.780525,505.122,524.676)">
                            <path d="M27.634,-78.708C14.567,-78.708 3.975,-58.917 3.974,-34.503C3.974,-10.09 14.567,9.702 27.634,9.702C40.699,9.702 51.292,-10.089 51.293,-34.503C51.292,-58.917 40.7,-78.708 27.634,-78.708" style="fill:rgb(28,25,24);fill-rule:nonzero;"/>
                        </g>
                        <g transform="matrix(-0.875775,0.482719,0.482719,0.875775,704.108,647.095)">
                            <path d="M21.339,-82.918C34.405,-82.919 44.997,-63.127 44.997,-38.713C44.998,-14.3 34.405,5.491 21.339,5.491C8.272,5.492 -2.32,-14.3 -2.32,-38.714C-2.32,-63.127 8.272,-82.918 21.339,-82.918" style="fill:rgb(28,25,24);fill-rule:nonzero;"/>
                        </g>
                        <g transform="matrix(-0.585108,0.810955,0.810955,0.585108,676.815,570.836)">
                            <path d="M35.849,-70.07C48.915,-70.07 59.507,-50.278 59.508,-25.865C59.507,-1.451 48.915,18.34 35.849,18.34C22.782,18.341 12.19,-1.451 12.19,-25.865C12.19,-50.278 22.783,-70.07 35.849,-70.07" style="fill:rgb(28,25,24);fill-rule:nonzero;"/>
                        </g>
                        <g transform="matrix(0.289291,0.957241,0.957241,-0.289291,427.875,454.844)">
                            <path d="M18.836,-13.985C29.704,-13.984 38.514,-5.174 38.514,5.693C38.513,16.561 29.703,25.371 18.836,25.37C7.969,25.37 -0.842,16.56 -0.842,5.693C-0.841,-5.174 7.969,-13.985 18.836,-13.985" style="fill:rgb(28,25,24);fill-rule:nonzero;"/>
                        </g>
                        <g transform="matrix(-0.994981,0.100062,0.100062,0.994981,687.576,682.995)">
                            <path d="M1.969,-39.257C-8.898,-39.256 -17.708,-30.447 -17.709,-19.579C-17.708,-8.712 -8.899,0.098 1.969,0.099C12.836,0.098 21.647,-8.712 21.647,-19.579C21.646,-30.446 12.836,-39.257 1.969,-39.257" style="fill:rgb(28,25,24);fill-rule:nonzero;"/>
                        </g>
                        <g transform="matrix(0.838937,0.544229,0.544229,-0.838937,401.768,675.632)">
                            <path d="M24.058,-7.12C39.417,-7.119 51.869,12.671 51.869,37.085C51.87,61.499 39.418,81.289 24.058,81.29C8.698,81.289 -3.754,61.499 -3.754,37.085C-3.755,12.671 8.698,-7.12 24.058,-7.12" style="fill:rgb(28,25,24);fill-rule:nonzero;"/>
                        </g>
                        <g transform="matrix(0.0708965,-0.997484,-0.997484,-0.0708965,415.333,674.207)">
                            <path d="M-17.39,-16.197C-21.927,-16.197 -25.606,-8.392 -25.606,1.236C-25.606,10.865 -21.927,18.67 -17.39,18.67C-12.852,18.67 -9.174,10.865 -9.174,1.236C-9.173,-8.392 -12.852,-16.198 -17.39,-16.197" style="fill:rgb(28,25,24);fill-rule:nonzero;"/>
                        </g>
                        <g transform="matrix(0.980132,0.198345,0.198345,-0.980132,580.429,770.778)">
                            <path d="M8.58,-0.859C-6.84,-0.86 -19.34,18.507 -19.341,42.396C-19.34,66.285 -6.84,85.651 8.579,85.651C24,85.651 36.499,66.285 36.5,42.396C36.5,18.506 23.999,-0.859 8.58,-0.859" style="fill:rgb(28,25,24);fill-rule:nonzero;"/>
                        </g>
                        <g transform="matrix(-0.616039,0.787716,0.787716,0.616039,605.132,773.571)">
                            <path d="M13.733,-28.174C18.27,-28.174 21.949,-20.369 21.949,-10.74C21.949,-1.112 18.271,6.693 13.733,6.694C9.195,6.693 5.516,-1.112 5.517,-10.74C5.516,-20.369 9.196,-28.174 13.733,-28.174" style="fill:rgb(28,25,24);fill-rule:nonzero;"/>
                        </g>
                    </g>
                </g>
                <g transform="matrix(0,-1,-1,0,452.691,-92.0641)">
                    <path d="M-448.545,-448.545C-696.269,-448.545 -897.09,-247.725 -897.09,0C-897.09,247.724 -696.269,448.545 -448.545,448.545C-200.821,448.545 0,247.724 0,0C0,-247.725 -200.821,-448.545 -448.545,-448.545Z" style="fill:none;fill-rule:nonzero;stroke:white;stroke-width:20px;"/>
                </g>
                <g transform="matrix(1,0,0,1,-883.265,32.8318)">
                    <g transform="matrix(144,0,0,144,697.06,520.137)">
                        <path d="M0.464,-0.186C0.464,-0.29 0.418,-0.336 0.284,-0.397C0.179,-0.445 0.153,-0.47 0.153,-0.523C0.153,-0.574 0.188,-0.616 0.267,-0.616C0.322,-0.616 0.374,-0.594 0.412,-0.565L0.427,-0.659C0.387,-0.682 0.337,-0.698 0.27,-0.698C0.145,-0.698 0.06,-0.627 0.06,-0.516C0.06,-0.417 0.109,-0.374 0.239,-0.315C0.343,-0.268 0.371,-0.242 0.371,-0.179C0.371,-0.112 0.32,-0.074 0.248,-0.074C0.179,-0.074 0.114,-0.102 0.067,-0.133L0.053,-0.037C0.104,-0.01 0.171,0.008 0.246,0.008C0.375,0.008 0.464,-0.067 0.464,-0.186Z" style="fill:rgb(28,25,24);fill-rule:nonzero;"/>
                    </g>
                    <g transform="matrix(144,0,0,144,808.122,520.137)">
                        <path d="M0.613,-0.266L0.613,-0.69L0.519,-0.69L0.519,-0.27C0.519,-0.145 0.46,-0.073 0.343,-0.073C0.224,-0.073 0.17,-0.153 0.17,-0.273L0.17,-0.69L0.076,-0.69L0.076,-0.261C0.076,-0.093 0.176,0.013 0.343,0.013C0.51,0.013 0.613,-0.092 0.613,-0.266Z" style="fill:rgb(28,25,24);fill-rule:nonzero;"/>
                    </g>
                    <g transform="matrix(144,0,0,144,944.671,520.137)">
                        <path d="M0.835,-0L0.781,-0.69L0.666,-0.69L0.451,-0.124L0.236,-0.69L0.12,-0.69L0.065,-0L0.153,-0L0.195,-0.557L0.411,0.003L0.486,0.003L0.702,-0.557L0.745,-0L0.835,-0Z" style="fill:rgb(28,25,24);fill-rule:nonzero;"/>
                    </g>
                    <g transform="matrix(144,0,0,144,1111.61,520.137)">
                        <path d="M0.691,-0.346C0.691,-0.559 0.569,-0.703 0.374,-0.703C0.18,-0.703 0.055,-0.558 0.055,-0.344C0.055,-0.131 0.178,0.013 0.372,0.013C0.567,0.013 0.691,-0.133 0.691,-0.346ZM0.594,-0.345C0.594,-0.179 0.51,-0.073 0.373,-0.073C0.237,-0.073 0.152,-0.179 0.152,-0.345C0.152,-0.511 0.236,-0.617 0.373,-0.617C0.509,-0.617 0.594,-0.511 0.594,-0.345Z" style="fill:rgb(28,25,24);fill-rule:nonzero;"/>
                    </g>
                </g>
            </g>
        </g>
    </g>
</svg>
