<?xml version="1.0" encoding="UTF-8" standalone="no"?>
<!DOCTYPE svg PUBLIC "-//W3C//DTD SVG 1.1//EN" "http://www.w3.org/Graphics/SVG/1.1/DTD/svg11.dtd">
<svg width="100%" height="100%" viewBox="0 0 1085 416" version="1.1" xmlns="http://www.w3.org/2000/svg" xmlns:xlink="http://www.w3.org/1999/xlink" xml:space="preserve" xmlns:serif="http://www.serif.com/" style="fill-rule:evenodd;clip-rule:evenodd;stroke-linejoin:round;stroke-miterlimit:2;">
    <g id="Artboard1" transform="matrix(0.721106,0,0,0.703054,91.173,0)">
        <rect x="-126.435" y="0" width="1504.3" height="590.551" style="fill:none;"/>
        <clipPath id="_clip1">
            <rect x="-126.435" y="0" width="1504.3" height="590.551"/>
        </clipPath>
        <g clip-path="url(#_clip1)">
            <g transform="matrix(0.323557,0,0,0.142237,-264.069,-133.917)">
                <rect x="0" y="0" width="5905.51" height="5905.51" style="fill:white;"/>
            </g>
            <g transform="matrix(1.38676,0,0,1.42237,-258.933,-133.917)">
                <g transform="matrix(1,0,0,1,47.9499,-29.4704)">
                    <g transform="matrix(-1,-1.22465e-16,1.22465e-16,-1,334.691,546.738)">
                        <path d="M119.959,103.797L267.625,399.128L-27.706,399.128L119.959,103.797Z" style="fill:rgb(112,114,126);"/>
                    </g>
                    <g transform="matrix(-0.237667,-8.73173e-17,8.73173e-17,-0.237667,243.242,241.47)">
                        <path d="M119.959,103.797L267.625,399.128L-27.706,399.128L119.959,103.797Z" style="fill:white;"/>
                    </g>
                </g>
                <g transform="matrix(1,0,0,1,8.21705,-1.78972)">
                    <g transform="matrix(1,2.44929e-16,-2.44929e-16,1,192.286,86.3224)">
                        <path d="M119.959,103.797L267.625,399.128L-27.706,399.128L119.959,103.797Z" style="fill:rgb(26,25,42);"/>
                    </g>
                    <g transform="matrix(0.237667,5.82115e-17,-5.82115e-17,0.237667,283.735,391.591)">
                        <path d="M119.959,103.797L267.625,399.128L-27.706,399.128L119.959,103.797Z" style="fill:white;"/>
                    </g>
                </g>
            </g>
            <g transform="matrix(5.93832,0,0,6.09079,-2733.3,-1090.95)">
                <g transform="matrix(46.7055,0,0,46.7055,517.816,222.38)">
                    <rect x="0.108" y="-0.66" width="0.08" height="0.66" style="fill:rgb(112,114,126);fill-rule:nonzero;"/>
                </g>
                <g transform="matrix(46.7055,0,0,46.7055,532.575,222.38)">
                    <path d="M0.358,-0.66C0.425,-0.66 0.479,-0.643 0.52,-0.608C0.561,-0.573 0.581,-0.526 0.581,-0.467C0.581,-0.408 0.56,-0.362 0.52,-0.329C0.478,-0.296 0.424,-0.279 0.357,-0.279L0.35,-0.274L0.188,-0.274L0.188,-0L0.108,-0L0.108,-0.66L0.358,-0.66ZM0.357,-0.349C0.404,-0.349 0.44,-0.359 0.463,-0.379C0.486,-0.398 0.497,-0.428 0.497,-0.467C0.497,-0.506 0.486,-0.536 0.463,-0.556C0.44,-0.575 0.404,-0.585 0.357,-0.585L0.188,-0.585L0.188,-0.349L0.357,-0.349ZM0.403,-0.333L0.621,-0L0.526,-0L0.336,-0.289L0.403,-0.333Z" style="fill:rgb(112,114,126);fill-rule:nonzero;"/>
                </g>
                <g transform="matrix(46.7055,0,0,46.7055,563.635,222.38)">
                    <path d="M0.572,-0.66L0.572,-0.585L0.342,-0.585L0.342,-0L0.262,-0L0.262,-0.585L0.032,-0.585L0.032,-0.66L0.572,-0.66Z" style="fill:rgb(112,114,126);fill-rule:nonzero;"/>
                </g>
                <g transform="matrix(46.7055,0,0,46.7055,592.779,222.38)">
                    <path d="M0.613,-0.66L0.613,-0.246C0.613,-0.161 0.591,-0.098 0.546,-0.055C0.501,-0.012 0.437,0.01 0.354,0.01C0.271,0.01 0.208,-0.012 0.163,-0.055C0.118,-0.098 0.095,-0.161 0.095,-0.246L0.095,-0.66L0.175,-0.66L0.175,-0.266C0.175,-0.197 0.19,-0.147 0.219,-0.114C0.248,-0.081 0.293,-0.065 0.354,-0.065C0.415,-0.065 0.46,-0.081 0.49,-0.114C0.519,-0.147 0.533,-0.197 0.533,-0.266L0.533,-0.66L0.613,-0.66Z" style="fill:rgb(112,114,126);fill-rule:nonzero;"/>
                </g>
                <g transform="matrix(46.7055,0,0,46.7055,625.706,222.38)">
                    <path d="M0.634,-0L0.549,-0L0.479,-0.183L0.18,-0.183L0.11,-0L0.026,-0L0.283,-0.66L0.378,-0.66L0.634,-0ZM0.209,-0.258L0.45,-0.258L0.329,-0.583L0.209,-0.258Z" style="fill:rgb(112,114,126);fill-rule:nonzero;"/>
                </g>
                <g transform="matrix(46.7055,0,0,46.7055,657.466,222.38)">
                    <path d="M0.188,-0.075L0.566,-0.075L0.566,-0L0.108,-0L0.108,-0.66L0.188,-0.66L0.188,-0.075Z" style="fill:rgb(112,114,126);fill-rule:nonzero;"/>
                </g>
            </g>
            <g transform="matrix(5.93832,0,0,6.09079,-2694.42,-840.063)">
                <g transform="matrix(46.7055,0,0,46.7055,517.816,222.38)">
                    <path d="M0.572,-0.66L0.572,-0.585L0.342,-0.585L0.342,-0L0.262,-0L0.262,-0.585L0.032,-0.585L0.032,-0.66L0.572,-0.66Z" style="fill:rgb(26,25,42);fill-rule:nonzero;"/>
                </g>
                <g transform="matrix(46.7055,0,0,46.7055,545.933,222.38)">
                    <path d="M0.374,-0.67C0.437,-0.67 0.491,-0.656 0.537,-0.629C0.582,-0.601 0.618,-0.562 0.643,-0.511C0.668,-0.46 0.68,-0.4 0.68,-0.33C0.68,-0.26 0.668,-0.2 0.643,-0.149C0.618,-0.098 0.582,-0.059 0.537,-0.032C0.491,-0.004 0.437,0.01 0.374,0.01C0.311,0.01 0.257,-0.004 0.212,-0.032C0.166,-0.059 0.131,-0.098 0.106,-0.149C0.081,-0.2 0.068,-0.26 0.068,-0.33C0.068,-0.4 0.081,-0.46 0.106,-0.511C0.131,-0.562 0.166,-0.601 0.212,-0.629C0.257,-0.656 0.311,-0.67 0.374,-0.67ZM0.374,-0.595C0.329,-0.595 0.289,-0.584 0.256,-0.564C0.223,-0.543 0.197,-0.512 0.179,-0.473C0.161,-0.433 0.152,-0.385 0.152,-0.33C0.152,-0.275 0.161,-0.227 0.179,-0.188C0.197,-0.148 0.223,-0.118 0.256,-0.097C0.289,-0.076 0.329,-0.065 0.374,-0.065C0.42,-0.065 0.46,-0.076 0.493,-0.097C0.526,-0.118 0.551,-0.148 0.569,-0.188C0.587,-0.227 0.596,-0.275 0.596,-0.33C0.596,-0.385 0.587,-0.433 0.569,-0.473C0.551,-0.512 0.526,-0.543 0.493,-0.564C0.46,-0.584 0.42,-0.595 0.374,-0.595Z" style="fill:rgb(26,25,42);fill-rule:nonzero;"/>
                </g>
                <g transform="matrix(46.7055,0,0,46.7055,581.803,222.38)">
                    <path d="M0.746,-0.66L0.746,-0L0.67,-0L0.67,-0.415L0.679,-0.589L0.678,-0.589L0.461,-0L0.393,-0L0.176,-0.589L0.175,-0.589L0.184,-0.415L0.184,-0L0.108,-0L0.108,-0.66L0.231,-0.66L0.376,-0.259L0.426,-0.094L0.428,-0.094L0.479,-0.258L0.623,-0.66L0.746,-0.66Z" style="fill:rgb(26,25,42);fill-rule:nonzero;"/>
                </g>
                <g transform="matrix(46.7055,0,0,46.7055,622.624,222.38)">
                    <path d="M0.32,-0.67C0.378,-0.67 0.428,-0.658 0.47,-0.635C0.512,-0.611 0.547,-0.576 0.575,-0.53L0.508,-0.478C0.483,-0.521 0.456,-0.551 0.425,-0.569C0.393,-0.586 0.356,-0.595 0.312,-0.595C0.277,-0.595 0.248,-0.59 0.225,-0.58C0.202,-0.57 0.185,-0.557 0.174,-0.541C0.163,-0.524 0.158,-0.506 0.158,-0.485C0.158,-0.462 0.165,-0.441 0.18,-0.424C0.195,-0.406 0.224,-0.392 0.268,-0.382L0.411,-0.35C0.474,-0.336 0.519,-0.315 0.544,-0.287C0.568,-0.258 0.581,-0.223 0.581,-0.181C0.581,-0.144 0.571,-0.111 0.55,-0.082C0.529,-0.053 0.499,-0.03 0.461,-0.014C0.423,0.002 0.378,0.01 0.327,0.01C0.279,0.01 0.237,0.004 0.201,-0.01C0.164,-0.023 0.133,-0.04 0.107,-0.062C0.081,-0.084 0.06,-0.109 0.043,-0.136L0.113,-0.193C0.126,-0.168 0.142,-0.145 0.162,-0.126C0.182,-0.107 0.206,-0.092 0.235,-0.081C0.263,-0.07 0.295,-0.065 0.332,-0.065C0.366,-0.065 0.396,-0.069 0.421,-0.078C0.446,-0.086 0.465,-0.098 0.478,-0.115C0.491,-0.131 0.498,-0.151 0.498,-0.174C0.498,-0.195 0.491,-0.215 0.477,-0.232C0.463,-0.249 0.437,-0.261 0.398,-0.27L0.243,-0.305C0.202,-0.314 0.169,-0.327 0.145,-0.344C0.119,-0.36 0.101,-0.379 0.091,-0.402C0.08,-0.424 0.074,-0.448 0.074,-0.474C0.074,-0.509 0.084,-0.542 0.104,-0.572C0.123,-0.601 0.152,-0.625 0.189,-0.643C0.226,-0.661 0.269,-0.67 0.32,-0.67Z" style="fill:rgb(26,25,42);fill-rule:nonzero;"/>
                </g>
            </g>
        </g>
    </g>
</svg>
