<svg clip-rule="evenodd" fill-rule="evenodd" stroke-miterlimit="10" viewBox="0 0 4359 2999" xmlns="http://www.w3.org/2000/svg" xmlns:xlink="http://www.w3.org/1999/xlink"><clipPath id="a"><path clip-rule="evenodd" d="m17.275 0h3750.38v4171.21h-3750.38z"/></clipPath><clipPath id="b"><path clip-rule="nonzero" d="m4.146 451.545c0 247.724 200.821 448.544 448.545 448.544 247.725 0 448.545-200.82 448.545-448.544s-200.82-448.545-448.545-448.545c-247.724 0-448.545 200.821-448.545 448.545z"/></clipPath><g transform="matrix(1.16221 0 0 .718898 -20.0771 0)"><path d="m17.275 0h3750.38v4171.21h-3750.38z" fill="none"/><g clip-path="url(#a)"><g clip-path="url(#b)" transform="matrix(3.6197007496 0 0 5.851772476 848.24908333616 -873.7440742)"><path d="m-19.682-3.963c-25.255 0-45.726 22.768-45.726 50.855 0 28.086 20.471 50.855 45.726 50.855 25.253.001 45.725-22.768 45.725-50.855s-20.471-50.855-45.725-50.855" fill="#1c1918" fill-rule="nonzero" transform="matrix(.922067 -.38703 -.38703 -.922067 622.1 725.055)"/><path d="m50.67-53.506c23.957 0 43.377 22.719 43.376 50.744 0 28.025-19.42 50.745-43.376 50.745-23.957 0-43.377-22.719-43.376-50.745-.001-28.025 19.419-50.744 43.376-50.744" fill="#1c1918" fill-rule="nonzero" transform="matrix(-.0544293 .998518 .998518 .0544293 481.656 584.045)"/><path d="m0 139.476c100.462 0 238.403-220.774 409.81-220.774 179.691-.055 401.171 302.127 497.489 302.127" fill="none" stroke="#4277bc" stroke-width="19.81" transform="translate(-19.4214 780.261)"/><path d="m0 14.673c79.436 0 188.507 157.135 324.04 157.135 142.083.04 358.265-328.983 434.423-328.983" fill="none" stroke="#f57f1f" stroke-width="19.81" transform="translate(26.5548 322.602)"/><g fill="#1c1918" fill-rule="nonzero"><path d="m-11.022-8.183c-6.359 0-11.515 5.155-11.514 11.514 0 6.36 5.155 11.515 11.514 11.514 6.36.001 11.515-5.155 11.514-11.514 0-6.359-5.155-11.515-11.514-11.514" transform="matrix(.289291 -.957241 -.957241 -.289291 635.82 469.806)"/><path d="m-91.185-67.7c-43.209 0-78.235 42.648-78.235 95.258 0 52.609 35.027 95.258 78.235 95.258 43.209 0 78.235-42.648 78.235-95.258s-35.026-95.258-78.235-95.258" transform="matrix(.289298 -.957239 -.957239 -.289298 603.894 538.737)"/><path d="m-42.416-31.492c-24.473 0-44.311 19.839-44.311 44.311 0 24.473 19.838 44.311 44.311 44.311 24.472.001 44.311-19.838 44.311-44.311.001-24.472-19.838-44.311-44.311-44.311" transform="matrix(.289298 -.957239 -.957239 -.289298 609.662 480.183)"/><path d="m43.938-49.059c-13.067 0-23.659 19.791-23.659 44.205s10.592 44.204 23.659 44.204c13.066 0 23.658-19.791 23.658-44.205s-10.592-44.204-23.658-44.204" transform="matrix(-.109818 .993952 .993952 .109818 523.704 499.986)"/><path d="m27.634-78.708c-13.067 0-23.659 19.791-23.66 44.205 0 24.413 10.593 44.205 23.66 44.205 13.065 0 23.658-19.791 23.659-44.205-.001-24.414-10.593-44.205-23.659-44.205" transform="matrix(-.780525 .625124 .625124 .780525 505.122 524.676)"/><path d="m21.339-82.918c13.066-.001 23.658 19.791 23.658 44.205.001 24.413-10.592 44.204-23.658 44.204-13.067.001-23.659-19.791-23.659-44.205 0-24.413 10.592-44.204 23.659-44.204" transform="matrix(-.875775 .482719 .482719 .875775 704.108 647.095)"/><path d="m35.849-70.07c13.066 0 23.658 19.792 23.659 44.205-.001 24.414-10.593 44.205-23.659 44.205-13.067.001-23.659-19.791-23.659-44.205 0-24.413 10.593-44.205 23.659-44.205" transform="matrix(-.585108 .810955 .810955 .585108 676.815 570.836)"/><path d="m18.836-13.985c10.868.001 19.678 8.811 19.678 19.678-.001 10.868-8.811 19.678-19.678 19.677-10.867 0-19.678-8.81-19.678-19.677.001-10.867 8.811-19.678 19.678-19.678" transform="matrix(.289291 .957241 .957241 -.289291 427.875 454.844)"/><path d="m1.969-39.257c-10.867.001-19.677 8.81-19.678 19.678.001 10.867 8.81 19.677 19.678 19.678 10.867-.001 19.678-8.811 19.678-19.678-.001-10.867-8.811-19.678-19.678-19.678" transform="matrix(-.994981 .100062 .100062 .994981 687.576 682.995)"/><path d="m24.058-7.12c15.359.001 27.811 19.791 27.811 44.205.001 24.414-12.451 44.204-27.811 44.205-15.36-.001-27.812-19.791-27.812-44.205-.001-24.414 12.452-44.205 27.812-44.205" transform="matrix(.838937 .544229 .544229 -.838937 401.768 675.632)"/><path d="m-17.39-16.197c-4.537 0-8.216 7.805-8.216 17.433 0 9.629 3.679 17.434 8.216 17.434 4.538 0 8.216-7.805 8.216-17.434.001-9.628-3.678-17.434-8.216-17.433" transform="matrix(.0708965 -.997484 -.997484 -.0708965 415.333 674.207)"/><path d="m8.58-.859c-15.42-.001-27.92 19.366-27.921 43.255.001 23.889 12.501 43.255 27.92 43.255 15.421 0 27.92-19.366 27.921-43.255 0-23.89-12.501-43.255-27.92-43.255" transform="matrix(.980132 .198345 .198345 -.980132 580.429 770.778)"/><path d="m13.733-28.174c4.537 0 8.216 7.805 8.216 17.434 0 9.628-3.678 17.433-8.216 17.434-4.538-.001-8.217-7.806-8.216-17.434-.001-9.629 3.679-17.434 8.216-17.434" transform="matrix(-.616039 .787716 .787716 .616039 605.132 773.571)"/></g></g><path d="m-448.545-448.545c-247.724 0-448.545 200.82-448.545 448.545 0 247.724 200.821 448.545 448.545 448.545s448.545-200.821 448.545-448.545c0-247.725-200.821-448.545-448.545-448.545z" fill="none" stroke="#fff" stroke-width="20" transform="matrix(0 -5.7959 -3.58514 0 2471.77061174 -806.08331719)"/><g fill="#1c1918" fill-rule="nonzero"><path d="m.464-.186c0-.104-.046-.15-.18-.211-.105-.048-.131-.073-.131-.126 0-.051.035-.093.114-.093.055 0 .107.022.145.051l.015-.094c-.04-.023-.09-.039-.157-.039-.125 0-.21.071-.21.182 0 .099.049.142.179.201.104.047.132.073.132.136 0 .067-.051.105-.123.105-.069 0-.134-.028-.181-.059l-.014.096c.051.027.118.045.193.045.129 0 .218-.075.218-.194z" transform="matrix(516.26016 0 0 834.6096 181.2390063 2932.46286792)"/><path d="m.613-.266v-.424h-.094v.42c0 .125-.059.197-.176.197-.119 0-.173-.08-.173-.2v-.417h-.094v.429c0 .168.1.274.267.274s.27-.105.27-.279z" transform="matrix(516.26016 0 0 834.6096 579.41182498 2932.46286792)"/><path d="m.835 0-.054-.69h-.115l-.215.566-.215-.566h-.116l-.055.69h.088l.042-.557.216.56h.075l.216-.56.043.557z" transform="matrix(516.26016 0 0 834.6096 1068.95910684 2932.46286792)"/><path d="m.691-.346c0-.213-.122-.357-.317-.357-.194 0-.319.145-.319.359 0 .213.123.357.317.357.195 0 .319-.146.319-.359zm-.097.001c0 .166-.084.272-.221.272-.136 0-.221-.106-.221-.272s.084-.272.221-.272c.136 0 .221.106.221.272z" transform="matrix(516.26016 0 0 834.6096 1667.4587933 2932.46286792)"/></g></g></g></svg>