<svg clip-rule="evenodd" fill-rule="evenodd" stroke-linejoin="round" stroke-miterlimit="2" viewBox="0 0 1085 416" xmlns="http://www.w3.org/2000/svg" xmlns:xlink="http://www.w3.org/1999/xlink"><clipPath id="a"><path clip-rule="evenodd" d="m-126.435 0h1504.3v590.551h-1504.3z"/></clipPath><g transform="matrix(.721106 0 0 .703054 91.173 0)"><path d="m-126.435 0h1504.3v590.551h-1504.3z" fill="none"/><g clip-path="url(#a)"><path d="m0 0h5905.51v5905.51h-5905.51z" fill="#fff" transform="matrix(.323557 0 0 .142237 -264.069 -133.917)"/><path d="m119.959 103.797 147.666 295.331h-295.331z" fill="#70727e" transform="matrix(-1.38676 0 0 -1.42237 271.698094484 601.828916212)"/><path d="m119.959 103.797 147.666 295.331h-295.331z" fill="#fff" transform="matrix(-.32958708892 0 0 -.33805041079 144.880279244 167.624871052)"/><path d="m119.959 103.797 147.666 295.331h-295.331z" fill="#1a192a" transform="matrix(1.38676 0 0 1.42237 19.116609618 -13.6802519484)"/><path d="m119.959 103.797 147.666 295.331h-295.331z" fill="#fff" transform="matrix(.32958708892 0 0 .33805041079 145.934424858 420.5246466336)"/><g fill-rule="nonzero"><path d="m.108-.66h.08v.66h-.08z" fill="#70727e" transform="matrix(277.35220476 0 0 284.473392345 341.65710912 263.5198802)"/><path d="m.358-.66c.067 0 .121.017.162.052s.061.082.061.141-.021.105-.061.138c-.042.033-.096.05-.163.05l-.007.005h-.162v.274h-.08v-.66zm-.001.311c.047 0 .083-.01.106-.03.023-.019.034-.049.034-.088s-.011-.069-.034-.089c-.023-.019-.059-.029-.106-.029h-.169v.236zm.046.016.218.333h-.095l-.19-.289z" fill="#70727e" transform="matrix(277.35220476 0 0 284.473392345 429.300774 263.5198802)"/><path d="m.572-.66v.075h-.23v.585h-.08v-.585h-.23v-.075z" fill="#70727e" transform="matrix(277.35220476 0 0 284.473392345 613.7449932 263.5198802)"/><path d="m.613-.66v.414c0 .085-.022.148-.067.191s-.109.065-.192.065-.146-.022-.191-.065-.068-.106-.068-.191v-.414h.08v.394c0 .069.015.119.044.152s.074.049.135.049.106-.016.136-.049c.029-.033.043-.083.043-.152v-.394z" fill="#70727e" transform="matrix(277.35220476 0 0 284.473392345 786.81139128 263.5198802)"/><path d="m.634 0h-.085l-.07-.183h-.299l-.07.183h-.084l.257-.66h.095zm-.425-.258h.241l-.121-.325z" fill="#70727e" transform="matrix(277.35220476 0 0 284.473392345 982.34245392 263.5198802)"/><path d="m.188-.075h.378v.075h-.458v-.66h.08z" fill="#70727e" transform="matrix(277.35220476 0 0 284.473392345 1170.94349712 263.5198802)"/><path d="m.572-.66v.075h-.23v.585h-.08v-.585h-.23v-.075z" fill="#1a192a" transform="matrix(277.35220476 0 0 284.473392345 380.53710912 514.4068802)"/><path d="m.374-.67c.063 0 .117.014.163.041.045.028.081.067.106.118s.037.111.037.181-.012.13-.037.181-.061.09-.106.117c-.046.028-.1.042-.163.042s-.117-.014-.162-.042c-.046-.027-.081-.066-.106-.117s-.038-.111-.038-.181.013-.13.038-.181.06-.09.106-.118c.045-.027.099-.041.162-.041zm0 .075c-.045 0-.085.011-.118.031-.033.021-.059.052-.077.091-.018.04-.027.088-.027.143s.009.103.027.142c.018.04.044.07.077.091s.073.032.118.032c.046 0 .086-.011.119-.032s.058-.051.076-.091c.018-.039.027-.087.027-.142s-.009-.103-.027-.143c-.018-.039-.043-.07-.076-.091-.033-.02-.073-.031-.119-.031z" fill="#1a192a" transform="matrix(277.35220476 0 0 284.473392345 547.50485256 514.4068802)"/><path d="m.746-.66v.66h-.076v-.415l.009-.174h-.001l-.217.589h-.068l-.217-.589h-.001l.009.174v.415h-.076v-.66h.123l.145.401.05.165h.002l.051-.164.144-.402z" fill="#1a192a" transform="matrix(277.35220476 0 0 284.473392345 760.51239096 514.4068802)"/><path d="m.32-.67c.058 0 .108.012.15.035.042.024.077.059.105.105l-.067.052c-.025-.043-.052-.073-.083-.091-.032-.017-.069-.026-.113-.026-.035 0-.064.005-.087.015s-.04.023-.051.039c-.011.017-.016.035-.016.056 0 .023.007.044.022.061.015.018.044.032.088.042l.143.032c.063.014.108.035.133.063.024.029.037.064.037.106 0 .037-.01.07-.031.099s-.051.052-.089.068-.083.024-.134.024c-.048 0-.09-.006-.126-.02-.037-.013-.068-.03-.094-.052s-.047-.047-.064-.074l.07-.057c.013.025.029.048.049.067s.044.034.073.045c.028.011.06.016.097.016.034 0 .064-.004.089-.013.025-.008.044-.02.057-.037.013-.016.02-.036.02-.059 0-.021-.007-.041-.021-.058s-.04-.029-.079-.038l-.155-.035c-.041-.009-.074-.022-.098-.039-.026-.016-.044-.035-.054-.058-.011-.022-.017-.046-.017-.072 0-.035.01-.068.03-.098.019-.029.048-.053.085-.071s.08-.027.131-.027z" fill="#1a192a" transform="matrix(277.35220476 0 0 284.473392345 1002.92055168 514.4068802)"/></g></g></g></svg>